<svg width="471" height="79" viewBox="0 0 471 79" fill="none" xmlns="http://www.w3.org/2000/svg">
<path d="M35.8398 0.103516C43.0717 0.103516 49.1838 1.44784 54.1758 4.13574C59.2318 6.75974 62.8484 10.312 65.0244 14.792L61.9521 17.6719C59.2002 12.9359 55.5835 9.60847 51.1035 7.68848C46.6236 5.70455 41.5357 4.71191 35.8398 4.71191C29.7599 4.71194 24.4156 6.15225 19.8076 9.03223C15.1998 11.9122 11.6156 15.9759 9.05566 21.2236C6.49566 26.4076 5.21582 32.4562 5.21582 39.3682C5.21584 46.5361 6.52836 52.7442 9.15234 57.9922C11.8403 63.24 15.6166 67.3036 20.4805 70.1836C25.4084 72.9995 31.2322 74.4082 37.9521 74.4082C49.0881 74.4082 56.9604 71.1759 61.5684 64.7119V38.792H34.6885V34.1836H66.1758V66.0557C63.6159 70.1515 59.9682 73.3196 55.2324 75.5596C50.4965 77.7996 44.7361 78.9199 37.9521 78.9199C30.2722 78.9199 23.6481 77.3201 18.0801 74.1201C12.5122 70.9202 8.19211 66.3762 5.12012 60.4883C2.11214 54.5363 0.608419 47.4961 0.608398 39.3682C0.608398 31.4962 2.08041 24.6155 5.02441 18.7275C8.03238 12.8398 12.1921 8.2639 17.5039 5C22.8159 1.73602 28.9279 0.103541 35.8398 0.103516ZM109.284 2.12012C116.132 2.12018 122.212 3.65577 127.523 6.72754C132.835 9.73554 136.996 14.0565 140.004 19.6885C143.012 25.2563 144.516 31.8799 144.516 39.5596C144.516 47.3035 143.012 53.992 140.004 59.624C137.06 65.192 132.964 69.4803 127.716 72.4883C122.468 75.4963 116.388 77 109.476 77H80.292V2.12012H109.284ZM210.936 34.0322V55.4082L204.344 62H188.664L188.056 61.3604V74.0957H179V34.0322L185.592 27.4404H204.344L210.936 34.0322ZM84.8994 72.3916H109.476C115.491 72.3916 120.771 71.08 125.315 68.4561C129.923 65.7681 133.507 61.9601 136.067 57.0322C138.627 52.1042 139.908 46.2796 139.908 39.5596C139.908 32.8397 138.596 27.0158 135.972 22.0879C133.348 17.16 129.732 13.3837 125.124 10.7598C120.58 8.07183 115.3 6.7276 109.284 6.72754H84.8994V72.3916ZM181.464 35.4082V71.6318H185.56V55.792L189.112 59.3438H203.224L208.6 53.9678V35.248L203.224 29.8721H187L181.464 35.4082ZM37.7598 10.2803C41.5357 10.2803 45.2159 11.1759 48.7998 12.9678C52.3838 14.6958 55.3922 17.5764 57.8242 21.6084L54.2725 24.9678C52.6085 21.8318 50.3678 19.3682 47.5518 17.5762C44.7998 15.7842 41.5357 14.8877 37.7598 14.8877C34.048 14.8877 30.752 15.8477 27.8721 17.7676C24.9921 19.6876 22.7197 22.4721 21.0557 26.1201C19.4557 29.7681 18.6562 34.1843 18.6562 39.3682C18.6563 44.6801 19.5201 49.224 21.248 53C22.976 56.776 25.2802 59.6557 28.1602 61.6396C31.1042 63.6236 34.3681 64.6162 37.9521 64.6162C41.2161 64.6162 43.968 64.1041 46.208 63.0801C48.448 61.9921 50.0795 60.6478 51.1035 59.0479V48.7764H34.6885V44.168H55.7119V60.3916C54.0479 63.0796 51.7438 65.2242 48.7998 66.8242C45.8559 68.4241 42.24 69.2236 37.9521 69.2236C33.6641 69.2236 29.6959 68.0716 26.0479 65.7676C22.4 63.4636 19.4875 60.1043 17.3115 55.6885C15.1355 51.2085 14.0479 45.7681 14.0479 39.3682C14.0479 33.0963 15.0722 27.8163 17.1201 23.5283C19.2321 19.1763 22.0801 15.8797 25.6641 13.6396C29.2479 11.3998 33.2799 10.2803 37.7598 10.2803ZM107.46 12.3916C112.004 12.3916 116.067 13.3843 119.651 15.3682C123.235 17.3521 126.083 20.3599 128.195 24.3916C130.307 28.4235 131.363 33.4798 131.363 39.5596C131.363 45.4476 130.34 50.4084 128.292 54.4404C126.244 58.4723 123.428 61.5443 119.844 63.6562C116.324 65.7042 112.259 66.7275 107.651 66.7275H93.3477V12.3916H107.46ZM97.9561 62.1201H107.651C113.283 62.1201 117.86 60.1677 121.38 56.2637C124.964 52.3597 126.756 46.7914 126.756 39.5596C126.756 34.5678 125.924 30.408 124.26 27.0801C122.596 23.6881 120.292 21.1601 117.348 19.4961C114.468 17.8321 111.172 17 107.46 17H97.9561V62.1201ZM233.541 52.9443H242.182V62H215.878V52.9443H224.518V23.0557H215.878V14H233.541V52.9443ZM280.201 34.0322V55.4082L273.609 62H253.737L247.145 55.4082V46.2881L253.737 39.6963H271.145V38.4482L269.193 36.4961H247.593V27.4404H273.609L280.201 34.0322ZM302.214 27.4404H310.15V36.4639H302.214V52.9443H309.926V62H293.158V36.4639H285.19V27.4404H293.158V18.6719H302.214V27.4404ZM341.623 22.416H333.016L331.607 23.8564V27.4404H341.623V36.4639H331.607V62H322.552V36.4639H316.088V27.4404H322.552V20.5918L329.144 14H341.623V22.416ZM381.829 34.0322V55.4082L375.237 62H355.237L348.645 55.4082V34.0322L355.237 27.4404H375.237L381.829 34.0322ZM399.231 30L401.695 27.4404H414.143L421.151 34.4482L414.175 41.2324L409.759 36.4961H406.111L404.159 38.4482V53.0078H410.367V62H388.895V52.9756H395.103V36.9443L394.623 36.4639H388.959V27.4404H397.055L399.231 30ZM447.949 30.7041L451.245 27.4404H463.629L470.221 34.0322V62H461.165V38.4482L459.213 36.4961H454.413L452.461 38.4482V60.0801H443.405V38.4482L441.453 36.4961H436.653L434.701 38.4482V62H425.645V34.0322L432.237 27.4404H444.621L447.949 30.7041ZM325.016 21.5518V29.8721H318.584V34H325.016V59.5996H329.144V34H339.287V29.8721H329.144V23.0244L332.088 20.0801H339.287V16.2725H330.327L325.016 21.5518ZM218.342 20.5283H226.918V55.4404H218.342V59.5361H239.749V55.4404H231.014V16.4004H218.342V20.5283ZM250.217 33.9678H270.505L273.801 37.2637V42.0645H254.857L249.641 47.248V54.1602L255.017 59.5361H272.393L277.929 54V35.2803L272.521 29.8721H250.217V33.9678ZM295.654 29.8398H287.622V33.9355H295.654V59.5361H307.494V55.4404H299.75V33.9355H307.75V29.8398H299.75V21.1035H295.654V29.8398ZM351.173 35.2803V54L356.709 59.5361H373.989L379.365 54.1602V35.248L373.989 29.8721H356.581L351.173 35.2803ZM391.263 34.0645H395.423L397.567 36.4004V55.4404H391.231V59.5361H408.063V55.4404H401.695V37.04L404.671 34.0645H411.199L414.527 37.7119L417.695 34.6084L413.183 29.9678H402.655L399.391 33.2959L396.351 29.9678H391.263V34.0645ZM428.141 35.2158V59.5361H432.237V37.2002L435.565 33.9355H442.413L445.901 37.3604V57.7764H449.997V37.3604L453.485 33.9355H460.333L463.661 37.2002V59.5361H467.757V35.2158L462.349 29.8076H452.077L447.949 33.9355L443.821 29.8076H433.549L428.141 35.2158ZM273.801 52.0156L270.377 55.4404H257.033L253.737 52.1758V48.7842L256.521 46H273.801V52.0156ZM375.237 37.2324V52.1758L371.973 55.4404H358.725L355.269 52.0156V37.2637L358.597 34H371.973L375.237 37.2324ZM204.504 37.2324V51.9844L201.208 55.248H189.88L185.56 50.96V37.3916L189.016 34H201.208L204.504 37.2324ZM188.056 38.4482V50.3838L190.616 52.9443H199.928L201.88 50.9922V38.4482L199.928 36.4639H190.008L188.056 38.4482ZM256.169 49.7764V50.9922L258.153 52.9443H269.193L271.145 50.9922V48.4316H257.513L256.169 49.7764ZM357.701 38.4482V50.9922L359.653 52.9443H370.821L372.773 50.9922V38.4482L370.821 36.4961H359.653L357.701 38.4482Z" fill="black"/>
</svg>
